# xmcd CD database file
#
# Track frame offsets:
#	150
#	28359
#	57651
#	89594
#	113733
#	154880
#	169154
#	190238
#	219979
#
# Disc length: 3229 seconds
#
# Revision: 0
# Processed by: cddbd v1.5.1PL0 Copyright (c) Steve Scherf et al.
# Submitted via: CDex 1.51
#
DISCID=810c9b09
DTITLE=Barbara Jungfer - Berlin Spirits
DYEAR=2005
DGENRE=Jazz
TTITLE0=Spring Thing
TTITLE1=Jazz au Camion
TTITLE2=Wolfspelz
TTITLE3=22:22
TTITLE4=Two circles
TTITLE5=F° - 32:1,8 =C°
TTITLE6=Lichtkatze
TTITLE7=Niemandsland
TTITLE8=Tubi Fish
EXTD=YEAR: 2005
EXTT0=
EXTT1=
EXTT2=
EXTT3=
EXTT4=
EXTT5=
EXTT6=
EXTT7=
EXTT8=
PLAYORDER=
